<?xml version="1.0" encoding="UTF-8"?>
<svg xmlns="http://www.w3.org/2000/svg" version="1.1" viewBox="0 0 1600 1600">
  <!-- Generator: Adobe Illustrator 29.5.1, SVG Export Plug-In . SVG Version: 2.1.0 Build 141)  -->
  <defs>
    <style>
      .st0, .st1 {
        fill: #534c9a;
      }

      .st0, .st2, .st3 {
        font-family: CatfilesRegular, Catfiles;
        font-size: 182.62px;
      }

      .st4, .st2 {
        fill: #fff;
      }

      .st5, .st6, .st7, .st8, .st9 {
        fill: none;
        stroke: #534c9a;
        stroke-miterlimit: 10;
        stroke-width: 3px;
      }

      .st5, .st7 {
        stroke-linecap: round;
      }

      .st10, .st3 {
        fill: #8d92c8;
      }

      .st7 {
        stroke-dasharray: 8.19 8.19;
      }

      .st8 {
        stroke-dasharray: 7.58 7.58;
      }

      .st9 {
        stroke-dasharray: 7.38 7.38;
      }
    </style>
  </defs>
  <g id="Camada_1">
    <rect class="st10" width="1600" height="1600"/>
    <circle class="st1" cx="780.11" cy="764.73" r="504.07"/>
    <g id="Camada_2">
      <path class="st1" d="M796.11,1017.54c-116.59,0-239.05-49.94-297.81-121.44-33.38-40.62-45.5-85.6-36-133.67,30-151.89,180.95-328.45,330.59-328.45,95.5.2,172.9,46.9,224.22,135.02,39.94,68.59,62.85,160.32,62.85,251.67,0,74.73-27.3,126.58-83.48,158.51-46.04,26.17-109.71,38.37-200.38,38.37Z"/>
      <path class="st4" d="M1079.97,820.66c0,155.94-123.6,192.56-279.54,192.56s-359.79-96.97-329.57-249.95c29.62-149.97,179.6-325.29,326.75-324.97,210.43.45,282.35,226.43,282.35,382.37Z"/>
      <g>
        <path class="st6" d="M712.79,849.47s.68,1.4,1.98,3.47"/>
        <path class="st8" d="M719.28,859.03c7.14,8.23,19.9,16.97,36.88,4.54"/>
        <path class="st6" d="M759.14,861.2c.97-.83,1.95-1.73,2.95-2.7,0,0,.44,1.52,1.48,3.71"/>
        <path class="st9" d="M767.39,868.51c5.78,7.51,16.95,14.95,36.62,5.09"/>
        <path class="st6" d="M807.27,871.85c1.11-.64,2.25-1.33,3.42-2.08"/>
      </g>
    </g>
    <path class="st1" d="M1043.57,645.68c-52.45,0-98.47-62.39-98.47-100.09,0-45.45,42.18-81.87,81.25-89.55,15.44-3.03,38.43-6.65,60.29-6.65,50.26,0,63.44,19.34,65.63,35.56,9.15,67.6-46.9,143.62-88.32,157.43-6.58,2.19-13.44,3.31-20.39,3.31Z"/>
    <path class="st4" d="M949.41,549.91c0-42.56,40.14-77.92,77.76-85.31,38.88-7.64,115.1-16.93,120.81,25.25,9.03,66.65-47.91,140.25-85.4,152.75-55.35,18.45-113.17-50.12-113.17-92.69Z"/>
    <path class="st1" d="M629.37,559.8c-17.29,0-32.23-5.09-44.4-15.11-33.7-27.76-58.72-118.83-25.91-178.64,6.71-12.23,18.31-18.43,34.49-18.43,29.01,0,66.82,19.93,93.42,36.66,33.71,21.19,60,70.33,43.68,112.75-11.4,29.63-57.13,62.77-101.28,62.77h0Z"/>
    <path class="st4" d="M726.62,499.8c15.28-39.73-9.48-87.13-41.95-107.54-33.55-21.09-101.35-57.12-121.82-19.81-32.35,58.97-5.64,148.1,24.87,173.23,45.03,37.09,123.62-6.15,138.91-45.88Z"/>
    <path class="st1" d="M716.23,505.95c15.28-39.73-14.29-75.05-46.76-95.46-33.55-21.09-83.72-47.31-99-7.58-15.28,39.73,2.19,136.98,37.98,150.74,35.79,13.77,92.5-7.97,107.78-47.7Z"/>
    <path class="st4" d="M401.64,548.2l-15.91,12.43c-7.19,5.62-5.6,16.91,2.86,20.32l18.72,7.56c8.46,3.42,17.44-3.6,16.17-12.64l-2.81-19.99c-1.27-9.03-11.84-13.3-19.03-7.69Z"/>
    <g>
      <ellipse class="st4" cx="409.71" cy="527.96" rx="9.22" ry="6.89" transform="translate(-143.86 902.35) rotate(-86.26)"/>
      <ellipse class="st4" cx="429.46" cy="535.94" rx="9.22" ry="6.89" transform="translate(-257.07 517.39) rotate(-49.75)"/>
      <ellipse class="st4" cx="391.97" cy="536.4" rx="5.81" ry="7.78" transform="translate(-133.78 130.26) rotate(-16.16)"/>
      <ellipse class="st4" cx="436.71" cy="554.98" rx="7.78" ry="5.81" transform="translate(-218.28 290.98) rotate(-29.85)"/>
    </g>
    <path class="st1" d="M956.9,559.38c0-42.56,40.29-64.92,77.91-72.31,38.88-7.64,95.12-14.1,95.12,28.47s-51.22,127.06-89.57,127.06-83.47-40.65-83.47-83.22Z"/>
    <g>
      <ellipse class="st4" cx="365.07" cy="887.23" rx="6.89" ry="9.22" transform="translate(-347.86 245.21) rotate(-25.63)"/>
      <ellipse class="st4" cx="386.19" cy="884.49" rx="9.22" ry="6.89" transform="translate(-555.31 1096.75) rotate(-79.12)"/>
      <ellipse class="st4" cx="353.74" cy="903.28" rx="5.81" ry="7.78" transform="translate(-538.65 522.9) rotate(-45.53)"/>
      <ellipse class="st4" cx="401.85" cy="897.53" rx="7.78" ry="5.81" transform="translate(-574.89 783.46) rotate(-59.22)"/>
    </g>
    <path class="st4" d="M1208.09,842.95l-16.41,10.22c-7.9,4.92-7.52,16.56.7,20.94l17.06,9.1c8.22,4.38,18.1-1.77,17.79-11.08l-.65-19.32c-.31-9.31-10.58-14.79-18.48-9.86Z"/>
    <g>
      <ellipse class="st4" cx="1218.63" cy="823.45" rx="9.22" ry="6.89" transform="translate(199.19 1883.59) rotate(-80.17)"/>
      <ellipse class="st4" cx="1237.43" cy="833.48" rx="9.22" ry="6.89" transform="translate(-233.23 1084.69) rotate(-43.66)"/>
      <ellipse class="st4" cx="1200.09" cy="829.96" rx="5.81" ry="7.78" transform="translate(-126.6 222.55) rotate(-10.07)"/>
      <ellipse class="st4" cx="1242.62" cy="853.18" rx="7.78" ry="5.81" transform="translate(-238.42 572.93) rotate(-23.76)"/>
    </g>
    <path class="st1" d="M611.28,1065.44c-6.94,0-13.02-5.3-17.65-15.16-4.77,9.67-11.47,15.16-18.93,15.16s-14.63-6.01-19.44-16.3c-4.81,10.29-11.76,16.3-19.44,16.3-10.3,0-17.07-3.7-21.02-11.95-4.19,8.25-10.81,11.95-20.63,11.95-16.93,0-26.07-31.29-26.07-60.72,0-13.82,1.92-27.28,5.42-37.89,6.81-29.12,40.25-50.52,79.43-50.52,41.61,0,76.12,23.79,80.43,55.38,2.6,9.79,3.98,21.2,3.98,33.03,0,29.44-9.14,60.72-26.07,60.72Z"/>
    <path class="st4" d="M629.13,976.85c-3.8-29.14-36.45-51.91-76.18-51.91s-69,20.54-75.33,47.55c-3.24,9.85-5.2,22.59-5.2,36.54,0,31.15,9.74,56.4,21.76,56.4,9.33,0,17.85-3.1,20.95-24.47,2.03,20.88,10.2,24.47,20.71,24.47,8.51,0,15.86-10.32,19.44-25.32,3.57,15,10.92,25.32,19.44,25.32s15.23-9.44,18.96-23.4c3.95,14.15,10.36,23.4,17.62,23.4,12.01,0,21.76-25.25,21.76-56.4,0-11.97-1.45-23.05-3.9-32.18Z"/>
    <path class="st1" d="M813.21,784c-5.53-9.5-17.71-12.73-27.21-7.2l-5.89,3.42-2.48-4.26c-5.53-9.5-17.71-12.73-27.21-7.2-9.5,5.53-12.73,17.71-7.2,27.21l22.56,38.79,34.41-20.01-.07-.11,5.89-3.42c9.5-5.53,12.73-17.71,7.2-27.21Z"/>
    <path class="st4" d="M368.44,907.66l-8.74,20.96c-3.29,7.9,3.2,16.41,11.69,15.31l22.52-2.91c8.49-1.1,12.61-10.98,7.41-17.78l-13.79-18.05c-5.2-6.8-15.81-5.43-19.1,2.47Z"/>
    <path class="st1" d="M1079.98,1065.44c-6.94,0-13.02-5.3-17.65-15.16-4.77,9.67-11.47,15.16-18.93,15.16s-14.63-6.01-19.44-16.3c-4.81,10.29-11.76,16.3-19.44,16.3-10.3,0-17.07-3.7-21.02-11.95-4.19,8.25-10.81,11.95-20.63,11.95-16.94,0-26.08-31.29-26.08-60.72,0-13.8,1.92-27.26,5.42-37.89,6.81-29.12,40.26-50.52,79.43-50.52,41.61,0,76.12,23.79,80.43,55.38,2.6,9.79,3.98,21.2,3.98,33.03,0,29.44-9.14,60.72-26.07,60.72Z"/>
    <path class="st4" d="M1097.83,976.85c-3.8-29.14-36.45-51.91-76.18-51.91s-69,20.54-75.33,47.55c-3.24,9.85-5.2,22.59-5.2,36.54,0,31.15,9.74,56.4,21.76,56.4,9.33,0,17.85-3.1,20.95-24.47,2.03,20.88,10.2,24.47,20.71,24.47,8.51,0,15.86-10.32,19.44-25.32,3.57,15,10.92,25.32,19.44,25.32s15.23-9.44,18.96-23.4c3.95,14.15,10.36,23.4,17.62,23.4,12.01,0,21.76-25.25,21.76-56.4,0-11.97-1.45-23.05-3.9-32.18Z"/>
    <g>
      <line class="st5" x1="780.11" y1="780.22" x2="780.91" y2="776.31"/>
      <line class="st7" x1="782.56" y1="768.28" x2="847.4" y2="451.23"/>
      <line class="st5" x1="848.22" y1="447.22" x2="849.02" y2="443.3"/>
    </g>
    <ellipse class="st4" cx="761.3" cy="775.33" rx="8.27" ry="4.89"/>
  </g>
  <g id="Camada_3">
    <ellipse class="st1" cx="667.73" cy="690.1" rx="34.72" ry="12.03" transform="translate(-263.78 923.32) rotate(-60)"/>
    <ellipse class="st1" cx="928.15" cy="743.92" rx="12.03" ry="34.72" transform="translate(-94.52 136.45) rotate(-8)"/>
    <text class="st0" transform="translate(388.85 1241.85)"><tspan x="0" y="0">BiluPet</tspan></text>
    <text class="st3" transform="translate(405.85 1230.89)"><tspan x="0" y="0">BiluPet</tspan></text>
    <text class="st2" transform="translate(400.37 1232.85)"><tspan x="0" y="0">BiluPet</tspan></text>
  </g>
</svg>