<?xml version="1.0" encoding="UTF-8"?>
<svg id="Camada_1" xmlns="http://www.w3.org/2000/svg" version="1.1" viewBox="0 0 1600 1600">
  <!-- Generator: Adobe Illustrator 29.5.1, SVG Export Plug-In . SVG Version: 2.1.0 Build 141)  -->
  <defs>
    <style>
      .st0 {
        fill: #255648;
      }

      .st1 {
        fill: #6dad66;
      }

      .st2 {
        fill: #5fb34d;
        font-family: Hello-Paris-Sans-Bold, 'Hello Paris Sans';
        font-size: 484.29px;
        font-weight: 700;
        letter-spacing: -.06em;
      }
    </style>
  </defs>
  <rect class="st0" width="1600" height="1600"/>
  <text class="st2" transform="translate(296.32 906.87) scale(1.01 1)"><tspan x="0" y="0">Lucky</tspan></text>
  <g>
    <path class="st1" d="M873.66,427.35c-44.74-16.37-73.66,37.58-73.66,37.58,0,0-28.92-53.95-73.66-37.58-29.65,10.85-43.67,44.67-32.31,74.13,11.05,28.66,39.41,70.81,105.97,129.42,66.56-58.61,94.92-100.76,105.97-129.42,11.36-29.46-2.66-63.28-32.31-74.13Z"/>
    <g>
      <path class="st1" d="M793.42,637.47h-165.97s-53.95-28.92-37.58-73.66c10.85-29.65,44.67-43.67,74.13-32.31,28.66,11.05,70.81,39.41,129.42,105.97Z"/>
      <path class="st1" d="M806.58,637.47h165.97s53.95-28.92,37.58-73.66c-10.85-29.65-44.67-43.67-74.13-32.31-28.66,11.05-70.81,39.41-129.42,105.97Z"/>
    </g>
  </g>
  <g>
    <path class="st1" d="M726.34,1172.65c44.74,16.37,73.66-37.58,73.66-37.58,0,0,28.92,53.95,73.66,37.58,29.65-10.85,43.67-44.67,32.31-74.13-11.05-28.66-39.41-70.81-105.97-129.42-66.56,58.61-94.92,100.76-105.97,129.42-11.36,29.46,2.66,63.28,32.31,74.13Z"/>
    <g>
      <path class="st1" d="M806.58,962.53h165.97s53.95,28.92,37.58,73.66c-10.85,29.65-44.67,43.67-74.13,32.31-28.66-11.05-70.81-39.41-129.42-105.97Z"/>
      <path class="st1" d="M793.42,962.53h-165.97s-53.95,28.92-37.58,73.66c10.85,29.65,44.67,43.67,74.13,32.31,28.66-11.05,70.81-39.41,129.42-105.97Z"/>
    </g>
  </g>
</svg>