<?xml version="1.0" encoding="UTF-8"?>
<svg xmlns="http://www.w3.org/2000/svg" version="1.1" viewBox="0 0 1600 1600">
  <!-- Generator: Adobe Illustrator 29.5.1, SVG Export Plug-In . SVG Version: 2.1.0 Build 141)  -->
  <defs>
    <style>
      .st0 {
        fill: none;
        stroke: #504f4f;
        stroke-miterlimit: 10;
        stroke-width: 3px;
      }

      .st1 {
        fill: #fff;
      }
    </style>
  </defs>
  <g id="Camada_2">
    <rect class="st1" width="1600" height="1596.14"/>
  </g>
  <g id="Camada_6">
    <g>
      <g>
        <g>
          <path class="st0" d="M263.94,793.67v-298.65h8.02c109.2,0,158.08-92.92,158.08-185.02v-8.02h345.07v222.92h-8.02c-143.77,0-260.74,116.97-260.74,260.74v8.02h-242.41Z"/>
          <path class="st0" d="M767.09,310h-329.02c0,106.61-59.49,193.04-166.11,193.04v282.6h226.36c0-148.44,120.33-268.77,268.77-268.77v-206.88Z"/>
        </g>
        <g>
          <path class="st0" d="M320.61,544.17h8.02c62.18,0,144.04-108.96,144.04-173.23v-8.02h244.06l1.7,120.67h-8.14c-49.06,0-111.79,30.84-163.72,80.5-53.01,50.69-84.66,110.14-84.66,159.05v7.93l-141.3,1.66v-188.55Z"/>
          <path class="st0" d="M708.82,370.94h-228.12c0,67.68-84.39,181.25-152.06,181.25v172.41l125.26-1.47c0-109.5,146.91-247.56,256.4-247.56l-1.47-104.62Z"/>
        </g>
      </g>
      <g>
        <g>
          <rect class="st0" x="139.88" y="931.89" width="490.23" height="242.13" transform="translate(1437.95 667.95) rotate(90)"/>
          <rect class="st0" x="271.96" y="815.86" width="226.08" height="474.19"/>
        </g>
        <g>
          <rect class="st0" x="182.21" y="970.13" width="405.58" height="165.64" transform="translate(1437.95 667.95) rotate(90)"/>
          <rect class="st0" x="190.24" y="978.15" width="389.53" height="149.6" transform="translate(1437.95 667.95) rotate(90)"/>
        </g>
      </g>
      <g>
        <g>
          <path class="st0" d="M1336.06,793.62v-298.65s-8.02,0-8.02,0c-109.2,0-158.08-92.92-158.08-185.02v-8.02s-345.07,0-345.07,0v222.92s8.02,0,8.02,0c143.77,0,260.74,116.97,260.74,260.74v8.02s242.41,0,242.41,0Z"/>
          <path class="st0" d="M832.91,309.95h329.02c0,106.61,59.49,193.04,166.11,193.04v282.6h-226.36c0-148.44-120.33-268.77-268.77-268.77v-206.88Z"/>
        </g>
        <g>
          <path class="st0" d="M1279.39,544.12h-8.02c-62.18,0-144.04-108.96-144.04-173.23v-8.02s-244.06,0-244.06,0l-1.7,120.67h8.14c49.06,0,111.79,30.84,163.72,80.5,53.01,50.69,84.66,110.14,84.66,159.05v7.93s141.3,1.66,141.3,1.66v-188.55Z"/>
          <path class="st0" d="M891.18,370.9h228.12c0,67.68,84.39,181.25,152.06,181.25v172.41s-125.26-1.47-125.26-1.47c0-109.5-146.91-247.56-256.4-247.56l1.47-104.62Z"/>
        </g>
      </g>
      <g>
        <g>
          <rect class="st0" x="969.88" y="931.89" width="490.23" height="242.13" transform="translate(2267.95 -162.05) rotate(90)"/>
          <rect class="st0" x="1101.96" y="815.86" width="226.08" height="474.19" transform="translate(2430 2105.9) rotate(-180)"/>
        </g>
        <g>
          <rect class="st0" x="1012.21" y="970.13" width="405.58" height="165.64" transform="translate(2267.95 -162.05) rotate(90)"/>
          <rect class="st0" x="1020.24" y="978.15" width="389.53" height="149.6" transform="translate(2267.95 -162.05) rotate(90)"/>
        </g>
      </g>
    </g>
  </g>
</svg>