<?xml version="1.0" encoding="UTF-8"?>
<svg xmlns="http://www.w3.org/2000/svg" version="1.1" viewBox="0 0 1600 1600">
  <!-- Generator: Adobe Illustrator 29.5.1, SVG Export Plug-In . SVG Version: 2.1.0 Build 141)  -->
  <defs>
    <style>
      .st0 {
        fill: none;
        stroke: #504f4f;
        stroke-miterlimit: 10;
        stroke-width: 3px;
      }

      .st1 {
        fill: #fff;
      }

      .st2 {
        display: none;
      }
    </style>
  </defs>
  <g id="Camada_2">
    <rect class="st1" width="1600" height="1596.14"/>
  </g>
  <g id="Camada_6">
    <g class="st2">
      <g>
        <g>
          <path class="st0" d="M263.94,793.67v-298.65h8.02c109.2,0,158.08-92.92,158.08-185.02v-8.02h345.07v222.92h-8.02c-143.77,0-260.74,116.97-260.74,260.74v8.02h-242.41Z"/>
          <path class="st0" d="M767.09,310h-329.02c0,106.61-59.49,193.04-166.11,193.04v282.6h226.36c0-148.44,120.33-268.77,268.77-268.77v-206.88Z"/>
        </g>
        <g>
          <path class="st0" d="M320.61,544.17h8.02c62.18,0,144.04-108.96,144.04-173.23v-8.02h244.06l1.7,120.67h-8.14c-49.06,0-111.79,30.84-163.72,80.5-53.01,50.69-84.66,110.14-84.66,159.05v7.93l-141.3,1.66v-188.55Z"/>
          <path class="st0" d="M708.82,370.94h-228.12c0,67.68-84.39,181.25-152.06,181.25v172.41l125.26-1.47c0-109.5,146.91-247.56,256.4-247.56l-1.47-104.62Z"/>
        </g>
      </g>
      <g>
        <g>
          <rect class="st0" x="139.88" y="931.89" width="490.23" height="242.13" transform="translate(1437.95 667.95) rotate(90)"/>
          <rect class="st0" x="271.96" y="815.86" width="226.08" height="474.19"/>
        </g>
        <g>
          <rect class="st0" x="182.21" y="970.13" width="405.58" height="165.64" transform="translate(1437.95 667.95) rotate(90)"/>
          <rect class="st0" x="190.24" y="978.15" width="389.53" height="149.6" transform="translate(1437.95 667.95) rotate(90)"/>
        </g>
      </g>
      <g>
        <g>
          <path class="st0" d="M1336.06,793.62v-298.65s-8.02,0-8.02,0c-109.2,0-158.08-92.92-158.08-185.02v-8.02s-345.07,0-345.07,0v222.92s8.02,0,8.02,0c143.77,0,260.74,116.97,260.74,260.74v8.02s242.41,0,242.41,0Z"/>
          <path class="st0" d="M832.91,309.95h329.02c0,106.61,59.49,193.04,166.11,193.04v282.6h-226.36c0-148.44-120.33-268.77-268.77-268.77v-206.88Z"/>
        </g>
        <g>
          <path class="st0" d="M1279.39,544.12h-8.02c-62.18,0-144.04-108.96-144.04-173.23v-8.02s-244.06,0-244.06,0l-1.7,120.67h8.14c49.06,0,111.79,30.84,163.72,80.5,53.01,50.69,84.66,110.14,84.66,159.05v7.93s141.3,1.66,141.3,1.66v-188.55Z"/>
          <path class="st0" d="M891.18,370.9h228.12c0,67.68,84.39,181.25,152.06,181.25v172.41s-125.26-1.47-125.26-1.47c0-109.5-146.91-247.56-256.4-247.56l1.47-104.62Z"/>
        </g>
      </g>
      <g>
        <g>
          <rect class="st0" x="969.88" y="931.89" width="490.23" height="242.13" transform="translate(2267.95 -162.05) rotate(90)"/>
          <rect class="st0" x="1101.96" y="815.86" width="226.08" height="474.19" transform="translate(2430 2105.9) rotate(-180)"/>
        </g>
        <g>
          <rect class="st0" x="1012.21" y="970.13" width="405.58" height="165.64" transform="translate(2267.95 -162.05) rotate(90)"/>
          <rect class="st0" x="1020.24" y="978.15" width="389.53" height="149.6" transform="translate(2267.95 -162.05) rotate(90)"/>
        </g>
      </g>
    </g>
    <g class="st2">
      <path class="st0" d="M1122.43,987.6v308.85h264.03v-308.85h-264.03ZM1338.93,1011.45l-83.72,89.61-83.72-89.61h167.45ZM1153.6,1050.99l78.07,91.03-78.07,91.03v-182.07ZM1171.48,1272.61l83.72-89.61,83.72,89.61h-167.45ZM1355.3,1233.06l-78.07-91.03,78.07-91.03v182.07Z"/>
      <path class="st0" d="M1094.01,871.58v66.7l-160.06,141.15-50.73,108.34c-5.21,11.12-19.28,16.79-32.21,12.98h0c-14.33-4.21-21.57-18.27-15.75-30.56l59.35-125.2,199.4-173.42Z"/>
      <path class="st0" d="M1042.99,816.47v66.7l-160.06,141.15-50.73,108.34c-5.21,11.12-19.28,16.79-32.21,12.98h0c-14.33-4.21-21.57-18.27-15.75-30.56l59.35-125.2,199.4-173.42Z"/>
      <path class="st0" d="M704.94,518.66c-23.84-50.94-56.04-123.7-56.04-123.7l-195.62-164.93-.71-.6-.77.61-195.62,164.93s-32.2,72.77-56.04,123.7c-23.84,50.94,26.59,48.51,26.59,48.51l29.45,175.85h197.1s195.62,0,195.62,0l29.45-175.85s50.42,2.43,26.59-48.51Z"/>
      <path class="st0" d="M772.14,653.89v106.72h121.02v-106.72h-121.02ZM828.48,751.82h-46.76v-41.23h46.76v41.23ZM828.48,703.92h-46.76v-41.23h46.76v41.23ZM883.57,751.82h-46.76v-41.23h46.76v41.23ZM883.57,703.92h-46.76v-41.23h46.76v41.23Z"/>
      <path class="st0" d="M1323.4,793.92c-16.2,0-19.25-2.66-19.25-16.17,0-7.82,3.35-15.65,9.29-20.87h-56.12c5.95,5.22,9.29,13.04,9.29,20.87,0,13.51-3.05,16.17-19.25,16.17-6.81,0-14.27-.95-20.65-3.03v35.48c6.38-2.08,13.85-3.03,20.65-3.03,16.2,0,19.25,2.66,19.25,16.17,0,7.82-3.35,15.65-9.29,20.87h56.12c-5.95-5.22-9.29-13.04-9.29-20.87,0-13.51,3.05-16.17,19.25-16.17,6.81,0,14.27.95,20.65,3.03v-35.48c-6.38,2.08-13.85,3.03-20.65,3.03Z"/>
      <path class="st0" d="M1300.85,474.02l-175.01,12.07c-6.17.43-10.93,4.96-10.93,10.42v14.4c-3.78.58-7.64.89-11.31.89-16.2,0-19.25-2.66-19.25-16.17,0-4.37,1.08-8.72,3.03-12.63h12.21c6.19,0,11.33-4.2,11.82-9.64l13.68-154.34c.54-6.08-4.91-11.27-11.82-11.27h-95.39c-6.91,0-12.36,5.19-11.82,11.27l13.68,154.34c.48,5.44,5.63,9.64,11.82,9.64h12.21c1.95,3.91,3.03,8.26,3.03,12.63,0,13.51-3.05,16.17-19.25,16.17-3.67,0-7.53-.3-11.31-.88v-14.4c0-5.46-4.76-10-10.93-10.42l-175.01-12.07c-6.89-.48-12.78,4.33-12.78,10.42v84.13c0,6.09,5.89,10.9,12.78,10.42l175.01-12.07c6.17-.43,10.93-4.96,10.93-10.42v-14.4c3.78-.58,7.64-.88,11.31-.88,16.2,0,19.25,2.66,19.25,16.17,0,4.37-1.08,8.71-3.03,12.63h-12.21c-6.19,0-11.33,4.2-11.82,9.64l-13.68,154.34c-.54,6.08,4.91,11.27,11.82,11.27h95.39c6.91,0,12.36-5.19,11.82-11.27l-13.68-154.34c-.48-5.44-5.63-9.64-11.82-9.64h-12.21c-1.95-3.91-3.03-8.26-3.03-12.63,0-13.51,3.05-16.17,19.25-16.17,3.67,0,7.53.3,11.31.88v14.4c0,5.46,4.76,10,10.93,10.42l175.01,12.07c6.89.47,12.78-4.33,12.78-10.42v-84.13c0-6.09-5.89-10.9-12.78-10.42ZM1068.84,326.45h41.94v30.02h-41.94v-30.02ZM1068.45,368.9h36.86v26.38h-36.86v-26.38ZM1068.22,404.67h33.89v24.26h-33.89v-24.26ZM1067.9,439.4h29.86v21.37h-29.86v-21.37ZM1020.37,356.47v-30.02h41.94v30.02h-41.94ZM1025.85,368.9h36.86v26.38h-36.86v-26.38ZM1029.04,428.93v-24.26h33.89v24.26h-33.89ZM1033.4,439.4h29.86v21.37h-29.86v-21.37ZM872.76,566.37h-34.04v-36.99h34.04v36.99ZM872.76,523.62h-34.04v-36.99h34.04v36.99ZM916.77,561.54h-29.91v-32.51h29.91v32.51ZM916.77,523.97h-29.91v-32.51h29.91v32.51ZM954.93,558.72h-27.5v-29.89h27.5v29.89ZM954.93,524.18h-27.5v-29.89h27.5v29.89ZM991.03,554.88h-24.23v-26.33h24.23v26.33ZM991.03,524.45h-24.23v-26.33h24.23v26.33ZM1062.31,726.56h-41.94v-30.02h41.94v30.02ZM1062.71,684.11h-36.86v-26.38h36.86v26.38ZM1062.94,648.34h-33.89v-24.26h33.89v24.26ZM1063.25,613.61h-29.86v-21.37h29.86v21.37ZM1110.79,696.54v30.02h-41.94v-30.02h41.94ZM1105.31,684.11h-36.86v-26.38h36.86v26.38ZM1102.11,624.08v24.26h-33.89v-24.26h33.89ZM1097.76,613.61h-29.86v-21.37h29.86v21.37ZM1164.35,554.88h-24.23v-26.33h24.23v26.33ZM1164.35,524.45h-24.23v-26.33h24.23v26.33ZM1203.73,558.72h-27.5v-29.89h27.5v29.89ZM1203.73,524.18h-27.5v-29.89h27.5v29.89ZM1244.29,561.54h-29.91v-32.51h29.91v32.51ZM1244.29,523.97h-29.91v-32.51h29.91v32.51ZM1292.42,566.37h-34.04v-36.99h34.04v36.99ZM1292.42,523.62h-34.04v-36.99h34.04v36.99Z"/>
      <polygon class="st0" points="665.99 1302.11 656.36 816.47 264.44 816.47 256.19 1302.11 269.25 1302.11 269.25 1331.22 652.93 1331.22 652.93 1302.11 665.99 1302.11"/>
    </g>
    <g>
      <circle class="st0" cx="516.68" cy="1073.56" r="250.77"/>
      <circle class="st0" cx="1075.93" cy="1073.05" r="250.77"/>
      <circle class="st0" cx="1075.93" cy="1073.05" r="221.12"/>
      <path class="st0" d="M766.93,738.56c-27.13-1.04-71.83-11.15-70.09-66.81,0,0-21.17-79.71-79.71-46.08,0,0-16.19-22.42-34.87-24.91,0,0,36.12-41.1,0-95.91v-54.8l11.46-19.39c3.1-5.24,4.73-11.22,4.73-17.31v-26.82s19.93-16.19,21.17-37.37c0,0,181.85-7.47,176.87-73.49h-491.8c-4.98,66.01,176.87,73.49,176.87,73.49,1.25,21.17,21.17,37.37,21.17,37.37v26.82c0,6.09,1.63,12.07,4.73,17.31l11.46,19.39v54.8c-36.12,54.8,0,95.91,0,95.91-18.68,2.49-34.87,24.91-34.87,24.91-58.54-33.63-79.71,46.08-79.71,46.08,1.74,55.66-42.96,65.78-70.09,66.81-11.24.43-20.17,9.58-20.17,20.83v13.57c0,11.51,9.33,20.85,20.85,20.85h53.23c69.75-48.58,83.45-113.34,83.45-113.34-.96,55.97,49.65,65.58,72.51,67.08v-220.37h12.98v220.37c22.85-1.49,73.47-11.11,72.5-67.08,0,0,13.7,64.77,83.45,113.34h53.23c11.51,0,20.85-9.33,20.85-20.85v-13.57c0-11.25-8.93-20.4-20.17-20.83Z"/>
      <path class="st0" d="M1304.44,738.56c-27.13-1.04-71.83-11.15-70.09-66.81,0,0-21.17-79.71-79.71-46.08,0,0-16.19-22.42-34.87-24.91,0,0,36.12-41.1,0-95.91v-54.8l11.46-19.39c3.1-5.24,4.73-11.22,4.73-17.31v-26.82s19.93-16.19,21.17-37.37c0,0,181.85-7.47,176.87-73.49h-239.41v251.6h-12.98v-251.6h-239.41c-4.98,66.01,176.87,73.49,176.87,73.49,1.25,21.17,21.17,37.37,21.17,37.37v26.82c0,6.09,1.63,12.07,4.73,17.31l11.46,19.39v54.8c-36.12,54.8,0,95.91,0,95.91-18.68,2.49-34.87,24.91-34.87,24.91-58.54-33.63-79.71,46.08-79.71,46.08,1.74,55.66-42.96,65.78-70.09,66.81-11.24.43-20.17,9.58-20.17,20.83v13.57c0,11.51,9.33,20.85,20.85,20.85h53.23c69.75-48.58,83.45-113.34,83.45-113.34-.99,57.7,52.83,66.13,74.54,67.19v.07s1.64.1,4.45.07c2.81.03,4.45-.07,4.45-.07v-.07c21.71-1.06,75.54-9.49,74.54-67.19,0,0,13.7,64.77,83.45,113.34h53.23c11.51,0,20.85-9.33,20.85-20.85v-13.57c0-11.25-8.93-20.4-20.17-20.83Z"/>
    </g>
  </g>
</svg>