<?xml version="1.0" encoding="UTF-8"?>
<svg xmlns="http://www.w3.org/2000/svg" version="1.1" viewBox="0 0 1440 1024">
  <!-- Generator: Adobe Illustrator 29.5.1, SVG Export Plug-In . SVG Version: 2.1.0 Build 141)  -->
  <defs>
    <style>
      .st0 {
        fill: #ea5398;
      }

      .st1 {
        fill: #5185a8;
      }

      .st2 {
        fill: none;
        stroke: #fff;
        stroke-width: 4px;
      }

      .st3 {
        fill: #97b8d3;
      }

      .st4 {
        fill: #f191bb;
      }

      .st5 {
        fill: #e977a7;
        font-size: 334.25px;
      }

      .st5, .st6 {
        font-family: VintageLanderpersonaluse, 'Vintage Lander personal use';
      }

      .st7 {
        display: none;
      }

      .st6 {
        fill: #fff;
        font-size: 104px;
      }
    </style>
  </defs>
  <g id="Camada_1" class="st7">
    <rect class="st3" width="1440" height="1024"/>
  </g>
  <g id="Camada_2">
    <circle class="st0" cx="-197.65" cy="323.95" r="47.81"/>
    <circle class="st4" cx="-197.65" cy="469.56" r="47.81"/>
    <circle class="st3" cx="-197.65" cy="738.42" r="47.81"/>
    <circle class="st1" cx="-197.65" cy="613.42" r="47.81"/>
    <g>
      <text class="st5" transform="translate(91.89 610.18)"><tspan x="0" y="0">Portfolio</tspan></text>
      <path class="st2" d="M1324.86,459.24l-3.85,9.23c-1.09,2.62-2.91,4.92-5.51,6.93.02-1.06.04-2.12.04-3.17,0-13.96-2.19-26.95-6.5-38.63l-.04-.1c-4.77-12.64-12.19-23.04-22.04-30.92-10.49-8.39-23.84-12.65-39.68-12.65-13.84,0-26.24,3.62-36.84,10.76-10.5,6.92-18.71,15.32-25.11,25.67-5.09,7.97-8.97,16.88-11.56,26.55-2.09,1.63-4.16,3.69-6.04,6.31h-.67l-.22,1.32c-2.05,3.16-3.83,7.05-5.14,11.84-1.67,6.29-2.98,12.38-3.96,18.28-.62,1.31-1.26,2.65-1.94,3.99-2.04,4.05-3.92,7.36-5.6,10.04v-.16c0-17.71,4.44-43.95,7.78-62.14l.02-.1c.69-3.92,1.08-5.64,1.37-6.9.74-3.25.98-4.78,1.69-12.35l.07-.7v-.71c0-8.34-3.13-15.64-8.52-21.13,12.19-8.85,20.77-24.14,20.77-40.37,0-21-14.59-36.84-33.94-36.84-23.19,0-43.52,22.42-43.52,47.98,0,9.15,2.74,17.33,7.41,23.66-11.07,5.61-19,15.57-21.23,27.91l-2.45,14.02c-1.05,5.98-2.22,12.11-3.45,18.6-1.67,8.79-3.36,17.69-4.83,26.52-1.5,3.69-3.43,8.04-5.76,12.63-2.06,4.07-3.96,7.4-5.65,10.08.11-23.02,7.63-64.16,17.14-116.14,3.1-16.95,6.3-34.47,9.6-53.25l.02-.13c.43-2.56.43-4.65.43-6.03,0-18.38-15.21-31.71-36.17-31.71-17.69,0-38.58,10.21-42.63,32.67-4.46,25.28-8.91,48.85-12.84,69.64-5.41,28.64-10.05,53.24-13.32,74.46-.43.4-.89.79-1.38,1.17.02-1.06.04-2.12.04-3.17,0-13.96-2.19-26.95-6.5-38.63l-.04-.1c-4.77-12.64-12.19-23.04-22.04-30.92-10.49-8.39-23.84-12.65-39.68-12.65-13.84,0-26.24,3.62-36.84,10.76-10.5,6.92-18.72,15.32-25.11,25.67-5.09,7.97-8.97,16.88-11.56,26.55-2.09,1.63-4.16,3.69-6.04,6.31h-.35l-.12.68c-2.22,3.27-4.17,7.35-5.57,12.48-1.63,6.12-2.91,12.06-3.89,17.81-4.99,8.96-11.53,17.69-16.85,22.58,3.85-22,8.19-46.72,12.47-67.33,6.39-30.76,9.79-38.13,10.62-39.59,4.57-5.54,7.09-12.26,7.09-18.97,0-16.35-13.78-33.27-36.84-33.27-11.22,0-19.81,2.93-26.49,7.39.62-2.67.94-5.33.94-7.99v-.67c0-12.63-9.12-19.23-18.12-19.23h-2.24l-1.33.24c-1.6.29-3.3.55-5.11.78l.5-4.02v-.94c0-10.44-4.61-19.35-12.99-25.08l-.23-.15-.23-.15c-6.65-4.2-14.29-6.33-22.72-6.33s-17.07,2.44-25.1,7.26c-9.01,5.41-15.09,13.91-17.59,24.61l-.1.42s-.13.76-.16.93c-3.8-.68-7.62-1.45-11.48-2.32l-.58-.13-3.21-.46h-1.07c-4.77,0-16.49,1.64-22.26,16.79l-.08.22c-2.41,6.62-3.58,12.96-3.58,19.39,0,4.36.65,8.62,1.88,12.32,3.63,10.89,11.86,13.19,15.23,13.67l.22.03c4.38.56,8.97,1.01,13.82,1.36-.5,2.58-.98,5.03-1.46,7.41-5.72,29.34-10.05,53.19-13.23,72.91-.46,2.86-.89,5.64-1.29,8.36-1.58,4.03-3.74,9.05-6.45,14.41-3.44,6.81-6.41,11.54-8.71,14.68-.16-6.41.8-18.13,5.91-38.48,5.14-20.46,11.75-38.74,11.81-38.91l.9-2.48v-2.64c0-19.26-15.25-31.71-38.84-31.71h-.34l-.34.02c-17.84.81-24.55,10.23-52.69,49.85-.58.56-1.65,1.24-2.9,1.86,1.28-5.08,2.41-11.26,2.41-17.34,0-21.6-14.08-29.26-26.14-29.26-16.07,0-29.08,10.04-35.86,26.63-4.69-9.66-11.11-17.79-19.17-24.24-10.49-8.39-23.84-12.65-39.68-12.65-13.84,0-26.24,3.62-36.84,10.76-10.5,6.92-18.71,15.32-25.11,25.67-.37.57-.71,1.16-1.06,1.74,1.33-7.89,2.03-15.81,2.03-23.62,0-30.02-9.89-55.91-28.61-74.88-20.9-21.18-52.18-32.37-90.45-32.37h-.19l-9.43.24-.55.05c-35.69,3.54-70.05,14.83-96.78,31.79-30.9,19.61-50.02,45.48-55.31,74.84-.76,3.87-1.15,7.88-1.15,11.92,0,21.97,14.2,36.17,36.17,36.17,12.02,0,23.16-4.03,28.73-6.44,13.74-5.93,20.14-12.76,20.14-21.49v-.75l-.07-.74c-.18-1.81-.53-3.34-.78-4.46-.1-.44-.24-1.05-.26-1.18,0-8.83,6.42-23.2,17.39-36.08-2.44,20.22-9.32,46.54-16.6,74.37-10.21,39.04-20.76,79.4-20.76,109.9,0,44.74,24.21,60.68,46.87,60.68,14.07,0,26.51-5.66,32.66-9.03,19.55-10.71,19.55-20.22,19.55-23.35,0-5.99-3.17-11.21-8.51-14.08-.79-1.09-4.67-7.58-5.05-30.77,1.54.08,3.14.12,4.8.12,41.72,0,76.45-23.22,99.2-55.52-1.1,7.32-1.67,14.32-1.67,20.91,0,17.3,3.26,31.89,9.68,43.37,6.53,11.9,15.21,20.79,25.81,26.42,10.2,5.64,20.92,8.5,31.88,8.5,12.73,0,24.52-2.94,35.05-8.75,9.99-5.41,18.88-12.77,26.42-21.87,5.92-7.15,11.04-15.01,15.26-23.46,8.02-2.59,15.02-5.43,21.24-8.63,16.34-8.28,26.01-18.9,31.63-29.55,3.3-.13,6.59-.44,9.82-.93-.26,3.29-.24,6.31-.14,11.19.06,3.2.15,7.58.15,13.96,0,19.98,3.77,35.18,11.52,46.46,6.76,9.84,20.2,21.57,45.82,21.57,18.13,0,33.29-6.59,45.33-19.62.31.43.62.87.95,1.29,9.26,12.16,24.28,18.33,44.64,18.33,6.65,0,12.84-.83,18.56-2.46-1.36,7.91-2.63,15.3-3.76,21.9-2.14,12.47-3.72,21.67-4.4,25.58l-.04.23-.03.23c-.49,3.42-1.04,7.29-1.04,11.04,0,16.1,6.25,29.48,18.07,38.69,10.77,8.38,25.25,12.64,43.06,12.64,23.65,0,43.72-14.81,56.5-41.71,9.31-19.6,14.66-45.11,14.66-70,0-7.51-.51-16.6-2.31-25.25,6.02,9.02,13.49,15.94,22.28,20.61,10.2,5.64,20.92,8.5,31.88,8.5,12.73,0,24.52-2.94,35.05-8.74,9.99-5.41,18.88-12.77,26.42-21.87,5.92-7.15,11.04-15.01,15.26-23.46,4.39-1.41,8.46-2.91,12.28-4.5.82,17.86,4.87,30.86,12.6,40.51,9.72,12.15,24.3,18.05,44.58,18.05,18.08,0,33.21-6.55,45.23-19.52,9.93,12.94,25.05,19.52,45.01,19.52s35.9-7.84,48.39-23.35c5.17,6.25,11.19,11.23,18,14.85,10.2,5.64,20.92,8.5,31.88,8.5,12.73,0,24.52-2.94,35.05-8.75,9.99-5.41,18.88-12.77,26.42-21.86,5.92-7.15,11.04-15.01,15.26-23.46,8.02-2.58,15.02-5.43,21.24-8.63,29.81-15.1,37.49-38.04,38.67-54.63l1.15-16.07h-35.92ZM265.68,470.91c-8.99,19.47-17.83,25.77-20.7,25.77-1.98,0-3.52-.01-4.76-.06,2.03-20.66,4.82-41.61,7.33-60.44,2.89-21.7,5.18-38.84,5.3-48.43v-.19c0-17.08-13.9-29.48-33.04-29.48,7.11-2.99,14.81-4.76,22.95-4.76,24.65,0,37.14,17.82,37.14,52.97,0,21.18-5.32,45.34-14.22,64.63ZM431.33,487.78c-2.37-.35-4.69-.84-6.99-1.47-.56-.16-1.1-.33-1.62-.53l.2-.46,1.29-4.51v-2.1c0-6.25-2.86-11.32-6.65-15.47,1.84-4.56,4.48-8.74,7.97-12.65,3.39-3.8,6.19-5.63,8.45-6.5.82,3.42,1.23,7.78,1.23,13.01,0,9.47-1.3,19.75-3.88,30.69ZM725.51,458.39c4.05-24.87,7.82-46.81,11.81-68.84,6.09-.91,11.39-2.05,16.02-3.44l.54-.16.11-.04c-.42.98-.82,1.95-1.2,2.9-7.76,19.46-12.66,47.7-20.08,90.44-.07.38-.13.78-.2,1.16-.72,1.8-1.62,3.93-2.74,6.44l-.06.13c-2.86,6.56-5.87,12.4-9.13,17.71.05-10.91,1.67-26.07,4.93-46.29ZM912.43,487.78c-2.37-.35-4.69-.84-6.99-1.47-.56-.16-1.1-.33-1.62-.53l.2-.46,1.29-4.51v-2.1c0-6.25-2.86-11.32-6.65-15.47,1.84-4.56,4.48-8.74,7.97-12.65,3.39-3.8,6.19-5.63,8.45-6.5.82,3.42,1.23,7.78,1.23,13.01,0,9.47-1.3,19.75-3.88,30.69ZM1247.13,487.78c-2.37-.35-4.69-.84-6.99-1.47-.56-.16-1.1-.33-1.62-.53l.2-.46,1.29-4.51v-2.1c0-6.25-2.86-11.32-6.65-15.47,1.84-4.56,4.48-8.74,7.97-12.65,3.39-3.8,6.19-5.63,8.45-6.5.82,3.42,1.23,7.78,1.23,13.01,0,9.47-1.3,19.75-3.88,30.69Z"/>
    </g>
    <text class="st6" transform="translate(892.5 700.07)"><tspan x="0" y="0">da Min</tspan></text>
  </g>
</svg>